# xmcd
# Track frame offsets:
# 150
# 9568
# 28730
# 49862
# 70552
# 86628
# 132256
# 156858
# 171448
# 187548
# 209446
# 222302
#
# Disc length: 3137 seconds
# Revision: 0
# Processed by: cddbd v1.4PL0 Copyright (c) Steve Scherf et al.
# Submitted via: VisiTrax 2.9.5.181 - For more info visit www.synapsa.com
#
DISCID=a10c3f0c
DTITLE=Merritt, Max - Live In Concert
DYEAR=2002
DGENRE=Soul
TTITLE0=Expectation
TTITLE1=Fannie May
TTITLE2=Western Union Man
TTITLE3=Dirty Work
TTITLE4=Let It Slide
TTITLE5=Giving It Up
TTITLE6=A Little Easier
TTITLE7=Slippin Away
TTITLE8=Slippin Away Chaser
TTITLE9=Try A Little Tenderness
TTITLE10=Can't Turn You Loose
TTITLE11=Can't Turn You Loose
EXTD=
EXTT0=
EXTT1=
EXTT2=
EXTT3=
EXTT4=
EXTT5=
EXTT6=
EXTT7=
EXTT8=
EXTT9=
EXTT10=
EXTT11=
PLAYORDER=
